<svg width="48" height="48" viewBox="0 0 48 48" fill="none" xmlns="http://www.w3.org/2000/svg">
<path d="M39.7 41.6001L26.55 28.4501L28.85 26.1501L42 39.3001L39.7 41.6001ZM11.2 39.3001C9.43333 37.3668 8.125 35.2251 7.275 32.8751C6.425 30.5251 6 28.1334 6 25.7001C6 23.1001 6.48333 20.5668 7.45 18.1001C8.41667 15.6334 9.88333 13.4168 11.85 11.4501C13.8167 9.48343 16.0417 8.01676 18.525 7.0501C21.0083 6.08343 23.55 5.6001 26.15 5.6001C28.5833 5.6001 30.975 6.0251 33.325 6.8751C35.675 7.7251 37.8 9.03343 39.7 10.8001L11.2 39.3001ZM11.35 34.8501L14.8 31.3501C14.2667 30.6168 13.7333 29.8251 13.2 28.9751C12.6667 28.1251 12.175 27.2251 11.725 26.2751C11.275 25.3251 10.9 24.3418 10.6 23.3251C10.3 22.3084 10.1 21.2668 10 20.2001C9.1 22.6668 8.79167 25.1834 9.075 27.7501C9.35833 30.3168 10.1167 32.6834 11.35 34.8501ZM17.2 29.1001L29.5 16.7001C27.9667 15.5001 26.4083 14.5584 24.825 13.8751C23.2417 13.1918 21.7333 12.7418 20.3 12.5251C18.8667 12.3084 17.5917 12.3084 16.475 12.5251C15.3583 12.7418 14.5 13.1501 13.9 13.7501C13.3 14.3501 12.9167 15.2084 12.75 16.3251C12.5833 17.4418 12.625 18.6918 12.875 20.0751C13.125 21.4584 13.6083 22.9251 14.325 24.4751C15.0417 26.0251 16 27.5668 17.2 29.1001ZM31.75 14.4001L35.35 10.9501C33.15 9.5501 30.7583 8.73343 28.175 8.5001C25.5917 8.26676 23.0667 8.63343 20.6 9.6001C21.6 9.7001 22.5917 9.9001 23.575 10.2001C24.5583 10.5001 25.525 10.8584 26.475 11.2751C27.425 11.6918 28.3417 12.1668 29.225 12.7001C30.1083 13.2334 30.95 13.8001 31.75 14.4001Z" fill="#42A7C3"/>
</svg>
