<svg width="48" height="48" viewBox="0 0 48 48" fill="none" xmlns="http://www.w3.org/2000/svg">
<path d="M30.95 10.3C29.95 10.3 29.0917 9.94167 28.375 9.225C27.6583 8.50833 27.3 7.65 27.3 6.65C27.3 5.65 27.6583 4.79167 28.375 4.075C29.0917 3.35833 29.95 3 30.95 3C31.95 3 32.8083 3.35833 33.525 4.075C34.2417 4.79167 34.6 5.65 34.6 6.65C34.6 7.65 34.2417 8.50833 33.525 9.225C32.8083 9.94167 31.95 10.3 30.95 10.3ZM21.1 20.6L25.55 25.35V37.7H22.55V27.7L15.75 21.75C15.45 21.4833 15.2 21.125 15 20.675C14.8 20.225 14.7 19.7667 14.7 19.3C14.7 18.8333 14.8083 18.3833 15.025 17.95C15.2417 17.5167 15.4833 17.1667 15.75 16.9L21.7 10.95C21.9667 10.6833 22.3417 10.4417 22.825 10.225C23.3083 10.0083 23.8167 9.9 24.35 9.9C24.8833 9.9 25.3917 10.0083 25.875 10.225C26.3583 10.4417 26.7333 10.6833 27 10.95L30.9 14.85C31.8 15.75 32.875 16.525 34.125 17.175C35.375 17.825 36.7833 18.15 38.35 18.15V21.15C36.35 21.15 34.55 20.775 32.95 20.025C31.35 19.275 29.9167 18.2667 28.65 17L26.65 15L21.1 20.6ZM10 24.5C12.7667 24.5 15.0833 25.4333 16.95 27.3C18.8167 29.1667 19.75 31.4833 19.75 34.25C19.75 37.0167 18.8167 39.3333 16.95 41.2C15.0833 43.0667 12.7667 44 10 44C7.23333 44 4.91667 43.0667 3.05 41.2C1.18333 39.3333 0.25 37.0167 0.25 34.25C0.25 31.4833 1.18333 29.1667 3.05 27.3C4.91667 25.4333 7.23333 24.5 10 24.5ZM10 41.55C12.0667 41.55 13.8 40.85 15.2 39.45C16.6 38.05 17.3 36.3167 17.3 34.25C17.3 32.1833 16.6 30.45 15.2 29.05C13.8 27.65 12.0667 26.95 10 26.95C7.93333 26.95 6.2 27.65 4.8 29.05C3.4 30.45 2.7 32.1833 2.7 34.25C2.7 36.3167 3.4 38.05 4.8 39.45C6.2 40.85 7.93333 41.55 10 41.55ZM38 24.5C40.7667 24.5 43.0833 25.4333 44.95 27.3C46.8167 29.1667 47.75 31.4833 47.75 34.25C47.75 37.0167 46.8167 39.3333 44.95 41.2C43.0833 43.0667 40.7667 44 38 44C35.2333 44 32.9167 43.0667 31.05 41.2C29.1833 39.3333 28.25 37.0167 28.25 34.25C28.25 31.4833 29.1833 29.1667 31.05 27.3C32.9167 25.4333 35.2333 24.5 38 24.5ZM38 41.55C40.0667 41.55 41.8 40.85 43.2 39.45C44.6 38.05 45.3 36.3167 45.3 34.25C45.3 32.1833 44.6 30.45 43.2 29.05C41.8 27.65 40.0667 26.95 38 26.95C35.9333 26.95 34.2 27.65 32.8 29.05C31.4 30.45 30.7 32.1833 30.7 34.25C30.7 36.3167 31.4 38.05 32.8 39.45C34.2 40.85 35.9333 41.55 38 41.55Z" fill="#42A7C3"/>
</svg>
