<svg width="20" height="20" viewBox="0 0 20 20" fill="none" xmlns="http://www.w3.org/2000/svg">
<path d="M5.47913 14.5208L11.5208 11.5416L14.5 5.49996L8.45829 8.47913L5.47913 14.5208ZM9.99996 10.8333C9.76385 10.8333 9.56593 10.7534 9.40621 10.5937C9.24649 10.434 9.16663 10.2361 9.16663 9.99996C9.16663 9.76385 9.24649 9.56593 9.40621 9.40621C9.56593 9.24649 9.76385 9.16663 9.99996 9.16663C10.2361 9.16663 10.434 9.24649 10.5937 9.40621C10.7534 9.56593 10.8333 9.76385 10.8333 9.99996C10.8333 10.2361 10.7534 10.434 10.5937 10.5937C10.434 10.7534 10.2361 10.8333 9.99996 10.8333ZM9.99996 18.3333C8.86107 18.3333 7.78468 18.1145 6.77079 17.677C5.7569 17.2395 4.87149 16.6423 4.11454 15.8854C3.3576 15.1284 2.76038 14.243 2.32288 13.2291C1.88538 12.2152 1.66663 11.1388 1.66663 9.99996C1.66663 8.84718 1.88538 7.76385 2.32288 6.74996C2.76038 5.73607 3.3576 4.85413 4.11454 4.10413C4.87149 3.35413 5.7569 2.76038 6.77079 2.32288C7.78468 1.88538 8.86107 1.66663 9.99996 1.66663C11.1527 1.66663 12.2361 1.88538 13.25 2.32288C14.2638 2.76038 15.1458 3.35413 15.8958 4.10413C16.6458 4.85413 17.2395 5.73607 17.677 6.74996C18.1145 7.76385 18.3333 8.84718 18.3333 9.99996C18.3333 11.1388 18.1145 12.2152 17.677 13.2291C17.2395 14.243 16.6458 15.1284 15.8958 15.8854C15.1458 16.6423 14.2638 17.2395 13.25 17.677C12.2361 18.1145 11.1527 18.3333 9.99996 18.3333ZM9.99996 17.0833C11.9722 17.0833 13.6458 16.3923 15.0208 15.0104C16.3958 13.6284 17.0833 11.9583 17.0833 9.99996C17.0833 8.02774 16.3958 6.35413 15.0208 4.97913C13.6458 3.60413 11.9722 2.91663 9.99996 2.91663C8.04163 2.91663 6.37149 3.60413 4.98954 4.97913C3.6076 6.35413 2.91663 8.02774 2.91663 9.99996C2.91663 11.9583 3.6076 13.6284 4.98954 15.0104C6.37149 16.3923 8.04163 17.0833 9.99996 17.0833Z" fill="white"/>
</svg>
