<svg width="48" height="48" viewBox="0 0 48 48" fill="none" xmlns="http://www.w3.org/2000/svg">
<path d="M24 41.9498L21.95 40.0998C18.4167 36.8665 15.5 34.0748 13.2 31.7248C10.9 29.3748 9.06667 27.2748 7.7 25.4248C6.33333 23.5748 5.375 21.8998 4.825 20.3998C4.275 18.8998 4 17.3831 4 15.8498C4 12.8498 5.00833 10.3415 7.025 8.3248C9.04167 6.30814 11.5333 5.2998 14.5 5.2998C16.4 5.2998 18.1583 5.7498 19.775 6.6498C21.3917 7.5498 22.8 8.84981 24 10.5498C25.4 8.74981 26.8833 7.4248 28.45 6.5748C30.0167 5.7248 31.7 5.2998 33.5 5.2998C36.4667 5.2998 38.9583 6.30814 40.975 8.3248C42.9917 10.3415 44 12.8498 44 15.8498C44 17.3831 43.725 18.8998 43.175 20.3998C42.625 21.8998 41.6667 23.5748 40.3 25.4248C38.9333 27.2748 37.1 29.3748 34.8 31.7248C32.5 34.0748 29.5833 36.8665 26.05 40.0998L24 41.9498ZM24 37.9998C27.3667 34.8998 30.1417 32.2415 32.325 30.0248C34.5083 27.8081 36.2417 25.8665 37.525 24.1998C38.8083 22.5331 39.7083 21.0498 40.225 19.7498C40.7417 18.4498 41 17.1498 41 15.8498C41 13.6498 40.3 11.8415 38.9 10.4248C37.5 9.00814 35.7 8.29981 33.5 8.29981C31.8 8.29981 30.2167 8.82481 28.75 9.8748C27.2833 10.9248 26.1 12.3998 25.2 14.2998H22.75C21.8833 12.4331 20.7167 10.9665 19.25 9.8998C17.7833 8.83314 16.2 8.29981 14.5 8.29981C12.3 8.29981 10.5 9.00814 9.1 10.4248C7.7 11.8415 7 13.6498 7 15.8498C7 17.1498 7.25833 18.4581 7.775 19.7748C8.29167 21.0915 9.19167 22.5915 10.475 24.2748C11.7583 25.9581 13.5 27.8998 15.7 30.0998C17.9 32.2998 20.6667 34.9331 24 37.9998Z" fill="white"/>
</svg>
