<svg width="305" height="11" viewBox="0 0 305 11" fill="none" xmlns="http://www.w3.org/2000/svg">
<path d="M0.256917 0.357557C0.428195 0.119185 0.630988 -7.97214e-07 0.865296 -7.82112e-07C1.09915 -7.6704e-07 1.30171 0.119185 1.47299 0.357557L6.49144 7.34186L11.527 0.333721C11.6869 0.11124 11.8867 -7.17554e-08 12.1265 -5.63004e-08C12.3663 -4.08454e-08 12.5718 0.119186 12.7431 0.357558C12.9144 0.59593 13 0.878162 13 1.20426C13 1.52971 12.9144 1.81163 12.7431 2.05L6.97101 10.0593C6.9025 10.1546 6.82828 10.2223 6.74835 10.2624C6.66842 10.3018 6.58278 10.3215 6.49144 10.3215C6.40009 10.3215 6.31445 10.3018 6.23452 10.2624C6.15459 10.2223 6.08037 10.1546 6.01186 10.0593L0.239789 2.02616C0.0799293 1.80368 -4.53481e-08 1.52971 -3.57e-08 1.20425C-2.6033e-08 0.878162 0.085639 0.595929 0.256917 0.357557Z" fill="#3A3A3A"/>
<path d="M291.707 0.357557C291.878 0.119185 292.081 -7.97214e-07 292.315 -7.82112e-07C292.549 -7.6704e-07 292.751 0.119185 292.923 0.357557L297.941 7.34186L302.977 0.333721C303.137 0.11124 303.336 -7.17554e-08 303.576 -5.63004e-08C303.816 -4.08454e-08 304.022 0.119186 304.193 0.357558C304.364 0.59593 304.45 0.878162 304.45 1.20426C304.45 1.52971 304.364 1.81163 304.193 2.05L298.421 10.0593C298.352 10.1546 298.278 10.2223 298.198 10.2624C298.118 10.3018 298.032 10.3215 297.941 10.3215C297.85 10.3215 297.764 10.3018 297.684 10.2624C297.604 10.2223 297.53 10.1546 297.462 10.0593L291.689 2.02616C291.53 1.80368 291.45 1.52971 291.45 1.20425C291.45 0.878162 291.535 0.595929 291.707 0.357557Z" fill="#3A3A3A"/>
</svg>
