<svg width="156" height="136" viewBox="0 0 156 136" fill="none" xmlns="http://www.w3.org/2000/svg">
<circle cx="8" cy="8" r="8" fill="#D8F6FF"/>
<circle cx="36" cy="8" r="8" fill="#D8F6FF"/>
<circle cx="64" cy="8" r="8" fill="#D8F6FF"/>
<circle cx="92" cy="8" r="8" fill="#D8F6FF"/>
<circle cx="120" cy="8" r="8" fill="#D8F6FF"/>
<circle cx="148" cy="8" r="8" fill="#D8F6FF"/>
<circle cx="8" cy="32" r="8" fill="#D8F6FF"/>
<circle cx="36" cy="32" r="8" fill="#D8F6FF"/>
<circle cx="64" cy="32" r="8" fill="#D8F6FF"/>
<circle cx="92" cy="32" r="8" fill="#D8F6FF"/>
<circle cx="120" cy="32" r="8" fill="#D8F6FF"/>
<circle cx="148" cy="32" r="8" fill="#D8F6FF"/>
<circle cx="8" cy="56" r="8" fill="#D8F6FF"/>
<circle cx="36" cy="56" r="8" fill="#D8F6FF"/>
<circle cx="64" cy="56" r="8" fill="#D8F6FF"/>
<circle cx="92" cy="56" r="8" fill="#D8F6FF"/>
<circle cx="120" cy="56" r="8" fill="#D8F6FF"/>
<circle cx="148" cy="56" r="8" fill="#D8F6FF"/>
<circle cx="8" cy="80" r="8" fill="#D8F6FF"/>
<circle cx="36" cy="80" r="8" fill="#D8F6FF"/>
<circle cx="64" cy="80" r="8" fill="#D8F6FF"/>
<circle cx="92" cy="80" r="8" fill="#D8F6FF"/>
<circle cx="120" cy="80" r="8" fill="#D8F6FF"/>
<circle cx="148" cy="80" r="8" fill="#D8F6FF"/>
<circle cx="8" cy="104" r="8" fill="#D8F6FF"/>
<circle cx="36" cy="104" r="8" fill="#D8F6FF"/>
<circle cx="64" cy="104" r="8" fill="#D8F6FF"/>
<circle cx="92" cy="104" r="8" fill="#D8F6FF"/>
<circle cx="120" cy="104" r="8" fill="#D8F6FF"/>
<circle cx="148" cy="104" r="8" fill="#D8F6FF"/>
<circle cx="8" cy="128" r="8" fill="#D8F6FF"/>
<circle cx="36" cy="128" r="8" fill="#D8F6FF"/>
<circle cx="64" cy="128" r="8" fill="#D8F6FF"/>
<circle cx="92" cy="128" r="8" fill="#D8F6FF"/>
<circle cx="120" cy="128" r="8" fill="#D8F6FF"/>
<circle cx="148" cy="128" r="8" fill="#D8F6FF"/>
</svg>
